<svg version="1.1" id="Layer_1" xmlns="http://www.w3.org/2000/svg" xmlns:xlink="http://www.w3.org/1999/xlink" x="0px" y="0px"
	 width="100%" viewBox="0 0 310 139" enable-background="new 0 0 310 139" xml:space="preserve">
<path fill="#420E58" opacity="1.000000" stroke="none" 
	d="
M186.000000,140.000000 
	C124.000008,140.000000 62.500015,140.000000 1.000016,140.000000 
	C1.000011,93.666679 1.000011,47.333359 1.000005,1.000029 
	C104.333313,1.000019 207.666626,1.000019 310.999939,1.000010 
	C310.999969,47.333302 310.999969,93.666603 311.000000,139.999954 
	C269.500000,140.000000 228.000000,140.000000 186.000000,140.000000 
M119.697746,93.984459 
	C119.896164,94.240463 120.128006,94.461388 120.685196,95.208229 
	C121.099152,95.852104 121.513100,96.495979 122.247765,97.747276 
	C123.710732,98.681282 125.173691,99.615288 128.125931,101.500099 
	C126.694664,96.255859 125.627243,92.344765 124.559822,88.433670 
	C124.015083,88.528542 123.470345,88.623413 122.925606,88.718285 
	C122.582466,90.464714 122.239334,92.211143 121.458611,93.995956 
	C121.458611,93.995956 121.019753,93.976967 120.891167,93.483131 
	C120.618126,93.300133 120.345085,93.117126 119.948311,92.385132 
	C119.675659,92.136368 119.403000,91.887611 118.985527,90.980545 
	C117.303162,89.305222 115.620796,87.629898 113.938263,85.178665 
	C113.689735,83.107590 113.610954,80.997688 113.148468,78.975555 
	C112.605743,76.602577 111.729485,74.305878 110.997879,71.976105 
	C110.494148,72.074097 109.990417,72.172089 109.486687,72.270081 
	C109.334473,73.482040 109.182259,74.693993 108.148880,76.307472 
	C105.731316,72.375496 103.313744,68.443512 100.966423,63.849609 
	C106.685204,59.868286 106.874107,59.493176 104.978264,56.496872 
	C102.407875,57.090866 99.743774,57.225304 97.547340,58.308239 
	C91.935150,61.075302 87.810905,59.033497 87.177025,52.620960 
	C89.768593,52.620960 92.351540,52.620960 95.136482,53.089878 
	C96.114456,52.909790 97.092422,52.729706 98.959770,52.368374 
	C102.206673,52.368374 105.453575,52.368374 108.572639,52.368374 
	C109.752174,43.856152 104.683128,37.278076 96.878975,36.279667 
	C90.049843,35.405994 83.051582,40.876724 81.953369,47.947430 
	C80.554832,56.951702 85.300858,62.690281 96.432053,65.746719 
	C99.851532,69.242546 103.271019,72.738365 106.716667,76.260933 
	C107.204224,76.131310 108.104759,75.891876 109.096909,76.523041 
	C108.663734,77.930031 107.429520,79.999992 107.944519,80.622246 
	C109.627121,82.655296 111.947212,84.160751 114.519943,86.677322 
	C113.993958,91.605415 109.464653,87.349609 106.921341,90.767708 
	C111.332291,91.609520 115.163475,92.340691 119.130386,93.392815 
	C119.130386,93.392815 119.415047,93.593811 119.697746,93.984459 
M190.268997,93.204437 
	C194.050217,92.360069 197.831436,91.515694 201.612656,90.671326 
	C201.468933,90.125458 201.325211,89.579597 201.181488,89.033730 
	C197.103546,90.356743 190.858444,84.388260 188.444168,93.105865 
	C188.294708,93.402031 188.145248,93.698196 187.196945,93.966034 
	C186.772263,92.175713 186.347580,90.385399 185.922913,88.595078 
	C185.337341,88.537544 184.751770,88.480011 184.166199,88.422470 
	C183.382095,92.259232 182.597977,96.095985 181.189926,100.226257 
	C179.805450,101.260628 178.420959,102.294998 177.496872,102.985397 
	C176.053238,101.680801 175.132233,100.848495 174.211243,100.016190 
	C174.069916,101.178375 173.874634,102.337234 173.802597,103.503700 
	C173.732117,104.644821 173.787262,105.793686 173.787262,107.794571 
	C178.686844,106.592293 183.198441,105.485222 187.710022,104.378159 
	C187.636871,103.899483 187.563721,103.420815 187.490555,102.942146 
	C186.066727,102.717804 184.609482,102.600037 183.248932,102.173721 
	C182.995407,102.094284 183.130234,100.775513 183.692490,99.709068 
	C185.321487,98.019661 186.950485,96.330246 188.959961,94.360321 
	C189.185532,94.132095 189.388718,93.885429 190.268997,93.204437 
M207.856613,63.536587 
	C205.742630,67.416908 203.628647,71.297234 201.514679,75.177559 
	C201.893555,75.410057 202.272430,75.642555 202.651306,75.875046 
	C206.006516,72.265717 209.361740,68.656387 213.307678,64.645790 
	C216.316742,58.414566 219.325806,52.183346 222.605133,45.392479 
	C225.035431,51.310562 227.088257,56.565990 229.387863,61.711117 
	C229.899628,62.856087 231.280106,63.612774 232.260605,64.548241 
	C233.066498,63.591740 234.199326,62.761242 234.624512,61.658020 
	C237.131683,55.152504 239.588287,48.621349 241.781372,42.005821 
	C242.251831,40.586613 241.568054,38.784775 241.415985,37.159206 
	C240.137680,38.342342 238.303360,39.289616 237.683075,40.751881 
	C235.642822,45.561535 234.042618,50.557861 231.894806,56.536278 
	C229.258286,50.106270 227.195526,44.894478 224.955902,39.759830 
	C224.483688,38.677219 223.362976,37.877476 222.541077,36.947392 
	C221.568573,37.912628 220.220337,38.706802 219.689392,39.873062 
	C217.525543,44.626225 215.611862,49.493279 213.606003,54.318371 
	C213.147202,54.408657 212.688400,54.498943 212.229599,54.589230 
	C210.468735,49.890125 208.852356,45.128395 206.859085,40.530033 
	C206.260117,39.148228 204.611557,38.221394 203.443817,37.086136 
	C203.233231,38.681164 202.494110,40.428123 202.901550,41.845490 
	C204.897812,48.789906 208.756073,55.250736 207.856613,63.536587 
M175.440369,61.097279 
	C176.539047,61.826717 177.577667,62.675240 178.746872,63.264801 
	C183.597244,65.710564 189.822723,64.905083 193.475403,61.081749 
	C194.383453,60.131268 194.359497,58.290394 194.763947,56.858791 
	C193.497787,57.114269 192.189423,57.248665 190.981110,57.670017 
	C190.240204,57.928379 189.702240,58.715549 188.988403,59.112999 
	C183.258484,62.303230 176.729431,59.075485 176.201385,52.124645 
	C183.426620,52.124645 190.620102,52.124645 197.713135,52.124645 
	C198.363708,44.950417 195.478210,39.840958 189.862076,37.387051 
	C184.318985,34.965057 178.161057,36.447716 174.076996,41.187634 
	C169.324768,46.703011 169.605316,53.874619 175.440369,61.097279 
M270.746826,52.773357 
	C267.778107,45.549088 264.875580,38.296200 261.775879,31.128574 
	C261.256378,29.927290 259.974609,28.437227 258.876770,28.283655 
	C257.841217,28.138794 255.972107,29.316195 255.519089,30.365158 
	C251.303177,40.126839 247.265121,49.966751 243.291855,59.830849 
	C242.242065,62.437099 243.267334,64.038628 246.235458,64.054054 
	C249.395615,64.070480 252.586075,64.337234 255.705551,63.984310 
	C257.821533,63.744923 259.837921,62.625305 261.898865,61.899342 
	C259.897186,61.240528 257.936462,60.352661 255.882660,59.985466 
	C253.703537,59.595863 251.436050,59.700584 248.351486,59.546757 
	C251.755264,51.256416 254.820953,43.789589 258.319641,35.268124 
	C259.590424,38.068653 260.313080,39.543053 260.937561,41.057945 
	C263.661102,47.665062 266.257874,54.327415 269.148621,60.860012 
	C269.694183,62.092899 271.368195,62.826435 272.521454,63.790390 
	C272.760437,62.208832 273.402832,60.555515 273.137512,59.063656 
	C272.796265,57.144932 271.726807,55.355721 270.746826,52.773357 
M41.092781,60.091072 
	C41.093395,56.761063 41.021019,53.429081 41.110737,50.101475 
	C41.268188,44.261520 44.069595,40.874149 48.674774,40.794167 
	C53.535225,40.709751 56.560772,44.119999 56.782761,50.150177 
	C56.911312,53.642048 56.641308,57.155396 56.908848,60.631516 
	C56.997944,61.789139 58.200550,62.861061 58.894115,63.972164 
	C59.597847,62.994682 60.875946,62.035511 60.907791,61.036606 
	C61.061405,56.218121 61.277588,51.342075 60.716648,46.575283 
	C59.998615,40.473534 54.316059,36.023121 48.529324,36.299591 
	C42.454243,36.589836 37.487549,41.107216 36.985928,47.315254 
	C36.624905,51.783165 36.740891,56.302395 36.896645,60.789967 
	C36.933769,61.859673 37.979176,62.894379 38.560818,63.945179 
	C39.402847,62.958309 40.244873,61.971439 41.092781,60.091072 
M152.051041,37.553925 
	C149.167267,43.727692 146.283508,49.901459 143.060623,56.801235 
	C140.372116,50.517452 138.080414,44.876869 135.495102,39.374226 
	C135.016418,38.355385 133.353134,37.893097 132.236618,37.173935 
	C131.987610,38.468407 131.167114,39.993458 131.581406,41.020302 
	C134.493744,48.238556 137.605942,55.378414 140.770340,62.491699 
	C142.215469,65.740173 144.195496,65.564896 145.576752,62.538139 
	C148.804688,55.464714 151.845428,48.303524 154.831360,41.123558 
	C155.639694,39.179817 156.057144,37.000275 152.051041,37.553925 
M143.549942,114.880661 
	C145.340073,115.520866 147.130219,116.161072 149.873352,117.142097 
	C146.880859,118.137161 145.006592,118.760399 143.132324,119.383636 
	C143.173492,119.683952 143.214661,119.984261 143.255814,120.284576 
	C150.778137,120.284576 158.300461,120.284576 165.822769,120.284576 
	C165.866348,119.941978 165.909927,119.599373 165.953506,119.256775 
	C164.062851,118.690018 162.172180,118.123260 160.281509,117.556511 
	C160.269745,117.100342 160.257965,116.644173 160.246201,116.188011 
	C164.296097,115.359840 168.346008,114.531677 171.215210,113.944954 
	C170.998413,113.919434 169.520599,113.745499 168.992859,113.683380 
	C169.407318,109.853058 169.761200,106.582405 170.115082,103.311760 
	C167.901428,104.633797 165.969162,106.321732 165.569962,108.316490 
	C164.321198,114.556038 159.017838,115.434158 154.515900,116.805809 
	C151.370712,117.764084 145.323090,112.310745 143.563522,108.439110 
	C142.651627,106.432648 141.177994,104.681496 139.533188,102.164764 
	C139.195389,105.342201 138.969879,107.463493 138.744354,109.584793 
	C138.130661,110.236382 139.050049,110.701668 139.676544,111.421768 
	C140.196503,112.019409 140.371613,112.917076 140.699478,113.681831 
	C140.426788,113.795532 140.154099,113.909233 139.881409,114.022949 
	C140.702698,114.252403 141.523285,114.484467 142.345901,114.709053 
	C142.505600,114.752655 142.673248,114.767181 143.549942,114.880661 
M67.984154,56.244495 
	C69.978676,58.754730 71.805588,61.436108 74.078400,63.662212 
	C74.693466,64.264648 76.657974,63.489323 78.003098,63.346386 
	C77.362587,62.216351 76.779388,61.048763 76.069069,59.964455 
	C74.772911,57.985851 72.545494,56.180344 72.241890,54.080627 
	C71.633942,49.876137 72.061401,45.521931 72.061401,42.095402 
	C74.493942,40.916401 76.270729,40.055225 78.047523,39.194057 
	C76.169800,38.069374 74.292076,36.944691 71.977943,35.558620 
	C71.977943,34.946880 72.279526,33.528721 71.901962,32.323280 
	C71.425018,30.800541 70.394623,29.451151 69.602959,28.026983 
	C68.874054,29.345398 67.527008,30.659563 67.517914,31.982925 
	C67.464218,39.797287 67.721550,47.613789 67.984154,56.244495 
M29.663958,51.459099 
	C29.546232,44.178711 29.465328,36.897194 29.242250,29.620033 
	C29.224018,29.025270 28.236233,28.460228 27.111115,27.248037 
	C26.240410,28.857927 25.076694,30.019207 25.059414,31.197306 
	C24.913572,41.140610 24.915136,51.087975 25.073441,61.030918 
	C25.089378,62.031872 26.434683,63.011658 27.163048,64.001266 
	C27.987364,62.965973 29.381197,62.002937 29.523527,60.881115 
	C29.875563,58.106453 29.654606,55.259098 29.663958,51.459099 
M283.849670,61.722813 
	C283.893066,51.953484 284.036743,42.182423 283.868225,32.416744 
	C283.843842,31.006006 282.319733,29.621147 281.489624,28.224312 
	C280.751129,29.200811 279.386353,30.167551 279.370972,31.155323 
	C279.216156,41.089710 279.148590,51.030643 279.378143,60.962307 
	C279.437927,63.549240 280.943878,65.212006 283.849670,61.722813 
M116.580742,43.272675 
	C115.853668,47.969322 114.784676,52.649147 114.552399,57.370140 
	C114.445831,59.536201 115.982567,61.783119 116.774094,63.993370 
	C117.481544,61.818111 118.763664,59.649799 118.790077,57.466301 
	C118.873627,50.557510 118.114693,43.511169 126.657166,40.524239 
	C127.306488,40.297203 127.475929,38.697727 127.868431,37.736206 
	C127.004265,37.415096 125.815880,36.562965 125.329193,36.860111 
	C122.435860,38.626640 119.704857,40.659054 116.580742,43.272675 
M160.069916,45.685963 
	C160.069992,50.002056 159.856262,54.333782 160.170059,58.626942 
	C160.305115,60.474861 161.533569,62.242859 162.265289,64.047165 
	C163.060501,62.325073 164.417618,60.642372 164.541656,58.873226 
	C164.865936,54.247852 164.897949,49.566238 164.552612,44.943939 
	C164.364746,42.429314 163.170715,39.989861 162.430481,37.516506 
	C161.643631,39.927982 160.856781,42.339458 160.069916,45.685963 
M195.950989,80.705620 
	C195.697723,82.171158 195.444458,83.636688 195.115677,85.539185 
	C201.592178,80.667725 201.592178,80.667725 197.857971,72.038895 
	C197.204620,74.684311 196.551270,77.329727 195.950989,80.705620 
M122.752869,102.633148 
	C122.679581,103.182602 122.457878,104.184708 122.554382,104.216347 
	C126.623566,105.550522 130.721146,106.798080 135.390182,108.233078 
	C133.246170,100.794884 128.069778,102.361664 122.752869,102.633148 
M160.053925,29.275051 
	C158.987900,31.875402 159.881454,33.660995 162.612442,33.734650 
	C163.443665,33.757065 165.112381,31.769686 165.038879,30.806459 
	C164.824905,28.002609 163.085464,27.172293 160.053925,29.275051 
z"/>
<path fill="#EFE8EB" opacity="1.000000" stroke="none" 
	d="
M208.146622,62.851151 
	C208.756073,55.250736 204.897812,48.789906 202.901550,41.845490 
	C202.494110,40.428123 203.233231,38.681164 203.443817,37.086136 
	C204.611557,38.221394 206.260117,39.148228 206.859085,40.530033 
	C208.852356,45.128395 210.468735,49.890125 212.229599,54.589230 
	C212.688400,54.498943 213.147202,54.408657 213.606003,54.318371 
	C215.611862,49.493279 217.525543,44.626225 219.689392,39.873062 
	C220.220337,38.706802 221.568573,37.912628 222.541077,36.947395 
	C223.362976,37.877476 224.483688,38.677219 224.955902,39.759830 
	C227.195526,44.894478 229.258286,50.106270 231.894806,56.536278 
	C234.042618,50.557861 235.642822,45.561535 237.683075,40.751881 
	C238.303360,39.289616 240.137680,38.342342 241.415985,37.159203 
	C241.568054,38.784775 242.251831,40.586613 241.781372,42.005821 
	C239.588287,48.621349 237.131683,55.152504 234.624512,61.658020 
	C234.199326,62.761242 233.066498,63.591740 232.260605,64.548233 
	C231.280106,63.612774 229.899628,62.856087 229.387863,61.711117 
	C227.088257,56.565990 225.035431,51.310562 222.605133,45.392479 
	C219.325806,52.183346 216.316742,58.414566 212.679443,64.814819 
	C210.749680,64.272949 209.448151,63.562046 208.146622,62.851151 
z"/>
<path fill="#F0E9ED" opacity="1.000000" stroke="none" 
	d="
M175.139771,60.883781 
	C169.605316,53.874619 169.324768,46.703011 174.076996,41.187634 
	C178.161057,36.447716 184.318985,34.965057 189.862076,37.387051 
	C195.478210,39.840958 198.363708,44.950417 197.713135,52.124645 
	C190.620102,52.124645 183.426620,52.124645 176.201385,52.124645 
	C176.729431,59.075485 183.258484,62.303230 188.988403,59.112999 
	C189.702240,58.715549 190.240204,57.928379 190.981110,57.670017 
	C192.189423,57.248665 193.497787,57.114269 194.763947,56.858791 
	C194.359497,58.290394 194.383453,60.131268 193.475403,61.081749 
	C189.822723,64.905083 183.597244,65.710564 178.746872,63.264801 
	C177.577667,62.675240 176.539047,61.826717 175.139771,60.883781 
M176.559464,45.022305 
	C176.156784,46.034893 175.754089,47.047485 175.196396,48.449883 
	C181.450073,48.449883 187.150406,48.449883 192.850754,48.449883 
	C193.188080,48.049213 193.525406,47.648540 193.862732,47.247871 
	C191.816116,45.219898 190.108398,42.406715 187.645309,41.343643 
	C183.719620,39.649303 179.820358,40.875771 176.559464,45.022305 
z"/>
<path fill="#587AAA" opacity="1.000000" stroke="none" 
	d="
M270.858948,53.142036 
	C271.726807,55.355721 272.796265,57.144932 273.137512,59.063656 
	C273.402832,60.555515 272.760437,62.208832 272.521484,63.790390 
	C271.368195,62.826435 269.694183,62.092899 269.148621,60.860012 
	C266.257874,54.327415 263.661102,47.665062 260.937561,41.057945 
	C260.313080,39.543053 259.590424,38.068653 258.319641,35.268124 
	C254.820953,43.789589 251.755264,51.256416 248.351486,59.546757 
	C251.436050,59.700584 253.703537,59.595863 255.882660,59.985466 
	C257.936462,60.352661 259.897186,61.240528 261.898865,61.899342 
	C259.837921,62.625305 257.821533,63.744923 255.705551,63.984310 
	C252.586075,64.337234 249.395615,64.070480 246.235458,64.054054 
	C243.267334,64.038628 242.242065,62.437099 243.291855,59.830849 
	C247.265121,49.966751 251.303177,40.126839 255.519089,30.365158 
	C255.972107,29.316195 257.841217,28.138794 258.876770,28.283655 
	C259.974609,28.437227 261.256378,29.927290 261.775879,31.128574 
	C264.875580,38.296200 267.778107,45.549088 270.858948,53.142036 
z"/>
<path fill="#F2ECEE" opacity="1.000000" stroke="none" 
	d="
M96.180702,65.150177 
	C85.300858,62.690281 80.554832,56.951702 81.953369,47.947430 
	C83.051582,40.876724 90.049843,35.405994 96.878975,36.279667 
	C104.683128,37.278076 109.752174,43.856152 108.572639,52.368374 
	C105.453575,52.368374 102.206673,52.368374 98.130447,52.347191 
	C96.512245,52.424324 95.723358,52.522640 94.934479,52.620960 
	C92.351540,52.620960 89.768593,52.620960 87.177025,52.620960 
	C87.810905,59.033497 91.935150,61.075302 97.547340,58.308239 
	C99.743774,57.225304 102.407875,57.090866 104.978264,56.496872 
	C106.874107,59.493176 106.685204,59.868286 100.551727,64.314087 
	C98.818253,64.902435 97.499481,65.026306 96.180702,65.150177 
M91.546936,41.453091 
	C89.689224,43.468178 87.831505,45.483265 85.170624,48.369560 
	C92.681679,48.369560 98.477715,48.369560 104.378548,48.369560 
	C102.395035,41.857288 99.849297,40.390472 91.546936,41.453091 
z"/>
<path fill="#F2EBEE" opacity="1.000000" stroke="none" 
	d="
M41.089840,60.537819 
	C40.244873,61.971439 39.402847,62.958309 38.560822,63.945183 
	C37.979176,62.894379 36.933769,61.859673 36.896645,60.789967 
	C36.740891,56.302395 36.624905,51.783165 36.985928,47.315254 
	C37.487549,41.107216 42.454243,36.589836 48.529324,36.299591 
	C54.316059,36.023121 59.998615,40.473534 60.716648,46.575283 
	C61.277588,51.342075 61.061405,56.218121 60.907791,61.036606 
	C60.875946,62.035511 59.597847,62.994682 58.894115,63.972164 
	C58.200550,62.861061 56.997944,61.789139 56.908848,60.631516 
	C56.641308,57.155396 56.911312,53.642048 56.782761,50.150177 
	C56.560772,44.119999 53.535225,40.709751 48.674774,40.794167 
	C44.069595,40.874149 41.268188,44.261520 41.110737,50.101475 
	C41.021019,53.429081 41.093395,56.761063 41.089840,60.537819 
z"/>
<path fill="#EFE7EB" opacity="1.000000" stroke="none" 
	d="
M152.351776,37.355049 
	C156.057144,37.000275 155.639694,39.179817 154.831360,41.123558 
	C151.845428,48.303524 148.804688,55.464714 145.576752,62.538139 
	C144.195496,65.564896 142.215469,65.740173 140.770340,62.491699 
	C137.605942,55.378414 134.493744,48.238556 131.581406,41.020302 
	C131.167114,39.993458 131.987610,38.468407 132.236603,37.173935 
	C133.353134,37.893097 135.016418,38.355385 135.495102,39.374226 
	C138.080414,44.876869 140.372116,50.517452 143.060623,56.801235 
	C146.283508,49.901459 149.167267,43.727692 152.351776,37.355049 
z"/>
<path fill="#D5D326" opacity="1.000000" stroke="none" 
	d="
M143.193573,114.837891 
	C142.673248,114.767181 142.505600,114.752655 142.345901,114.709053 
	C141.523285,114.484467 140.702698,114.252403 139.881409,114.022942 
	C140.154099,113.909233 140.426788,113.795532 140.699478,113.681839 
	C140.371613,112.917076 140.196503,112.019409 139.676544,111.421768 
	C139.050049,110.701668 138.130661,110.236382 138.744354,109.584793 
	C138.969879,107.463493 139.195389,105.342201 139.533188,102.164764 
	C141.177994,104.681496 142.651627,106.432648 143.563522,108.439110 
	C145.323090,112.310745 151.370712,117.764084 154.515900,116.805809 
	C159.017838,115.434158 164.321198,114.556038 165.569962,108.316490 
	C165.969162,106.321732 167.901428,104.633797 170.115082,103.311760 
	C169.761200,106.582405 169.407318,109.853058 168.992859,113.683380 
	C169.520599,113.745499 170.998413,113.919434 171.215210,113.944954 
	C168.346008,114.531677 164.296097,115.359840 160.246201,116.188011 
	C160.257965,116.644173 160.269745,117.100342 160.281509,117.556511 
	C162.172180,118.123260 164.062851,118.690018 165.953506,119.256775 
	C165.909927,119.599373 165.866348,119.941978 165.822769,120.284576 
	C158.300461,120.284576 150.778137,120.284576 143.255814,120.284576 
	C143.214661,119.984261 143.173492,119.683952 143.132324,119.383636 
	C145.006592,118.760399 146.880859,118.137161 149.873352,117.142097 
	C147.130219,116.161072 145.340073,115.520866 143.193573,114.837891 
z"/>
<path fill="#E9E0E7" opacity="1.000000" stroke="none" 
	d="
M67.929169,55.837032 
	C67.721550,47.613789 67.464218,39.797287 67.517914,31.982925 
	C67.527008,30.659563 68.874054,29.345398 69.602959,28.026985 
	C70.394623,29.451151 71.425018,30.800541 71.901962,32.323280 
	C72.279526,33.528721 71.977943,34.946880 71.977943,35.558620 
	C74.292076,36.944691 76.169800,38.069374 78.047523,39.194054 
	C76.270729,40.055225 74.493942,40.916401 72.061401,42.095402 
	C72.061401,45.521931 71.633942,49.876137 72.241890,54.080627 
	C72.545494,56.180344 74.772911,57.985851 76.069069,59.964455 
	C76.779388,61.048763 77.362587,62.216351 78.003098,63.346382 
	C76.657974,63.489323 74.693466,64.264648 74.078400,63.662212 
	C71.805588,61.436108 69.978676,58.754730 67.929169,55.837032 
z"/>
<path fill="#E0D5DF" opacity="1.000000" stroke="none" 
	d="
M29.663935,51.950027 
	C29.654606,55.259098 29.875563,58.106453 29.523527,60.881115 
	C29.381197,62.002937 27.987364,62.965973 27.163048,64.001266 
	C26.434683,63.011658 25.089378,62.031872 25.073441,61.030918 
	C24.915136,51.087975 24.913572,41.140610 25.059414,31.197306 
	C25.076694,30.019207 26.240410,28.857927 27.111115,27.248037 
	C28.236233,28.460228 29.224018,29.025270 29.242250,29.620033 
	C29.465328,36.897194 29.546232,44.178711 29.663935,51.950027 
z"/>
<path fill="#566FA2" opacity="1.000000" stroke="none" 
	d="
M283.687439,62.111893 
	C280.943878,65.212006 279.437927,63.549240 279.378143,60.962307 
	C279.148590,51.030643 279.216156,41.089710 279.370972,31.155323 
	C279.386353,30.167551 280.751129,29.200811 281.489624,28.224312 
	C282.319733,29.621147 283.843842,31.006006 283.868225,32.416744 
	C284.036743,42.182423 283.893066,51.953484 283.687439,62.111893 
z"/>
<path fill="#E8DEE5" opacity="1.000000" stroke="none" 
	d="
M116.750031,42.937408 
	C119.704857,40.659054 122.435860,38.626640 125.329193,36.860111 
	C125.815880,36.562965 127.004265,37.415096 127.868431,37.736206 
	C127.475929,38.697727 127.306488,40.297203 126.657166,40.524239 
	C118.114693,43.511169 118.873627,50.557510 118.790077,57.466301 
	C118.763664,59.649799 117.481544,61.818111 116.774094,63.993370 
	C115.982567,61.783119 114.445831,59.536201 114.552399,57.370140 
	C114.784676,52.649147 115.853668,47.969322 116.750031,42.937408 
z"/>
<path fill="#DED2DE" opacity="1.000000" stroke="none" 
	d="
M160.069916,45.218452 
	C160.856781,42.339458 161.643631,39.927982 162.430481,37.516502 
	C163.170715,39.989861 164.364746,42.429314 164.552612,44.943939 
	C164.897949,49.566238 164.865936,54.247852 164.541656,58.873226 
	C164.417618,60.642372 163.060501,62.325073 162.265289,64.047165 
	C161.533569,62.242859 160.305115,60.474861 160.170059,58.626942 
	C159.856262,54.333782 160.069992,50.002056 160.069916,45.218452 
z"/>
<path fill="#D3D127" opacity="1.000000" stroke="none" 
	d="
M183.085831,100.028709 
	C183.130234,100.775513 182.995407,102.094284 183.248932,102.173721 
	C184.609482,102.600037 186.066727,102.717804 187.490555,102.942146 
	C187.563721,103.420815 187.636871,103.899483 187.710022,104.378159 
	C183.198441,105.485222 178.686844,106.592293 173.787262,107.794571 
	C173.787262,105.793686 173.732117,104.644821 173.802597,103.503700 
	C173.874634,102.337234 174.069916,101.178375 174.211243,100.016190 
	C175.132233,100.848495 176.053238,101.680801 177.496872,102.985397 
	C178.420959,102.294998 179.805450,101.260628 181.819885,100.103485 
	C182.661835,99.996704 182.873825,100.012703 183.085831,100.028709 
z"/>
<path fill="#CAC52A" opacity="1.000000" stroke="none" 
	d="
M208.001617,63.193871 
	C209.448151,63.562046 210.749680,64.272949 212.384094,65.015450 
	C209.361740,68.656387 206.006516,72.265717 202.651306,75.875046 
	C202.272430,75.642555 201.893555,75.410057 201.514679,75.177559 
	C203.628647,71.297234 205.742630,67.416908 208.001617,63.193871 
z"/>
<path fill="#C8C22B" opacity="1.000000" stroke="none" 
	d="
M96.306381,65.448448 
	C97.499481,65.026306 98.818253,64.902435 100.516602,64.645050 
	C103.313744,68.443512 105.731316,72.375496 108.575195,76.065819 
	C109.001511,75.824165 109.005302,75.652458 109.005302,75.652451 
	C108.104759,75.891876 107.204224,76.131310 106.716667,76.260933 
	C103.271019,72.738365 99.851532,69.242546 96.306381,65.448448 
z"/>
<path fill="#D2D027" opacity="1.000000" stroke="none" 
	d="
M195.924438,80.340378 
	C196.551270,77.329727 197.204620,74.684311 197.857971,72.038895 
	C201.592178,80.667725 201.592178,80.667725 195.115677,85.539185 
	C195.444458,83.636688 195.697723,82.171158 195.924438,80.340378 
z"/>
<path fill="#CFCB28" opacity="1.000000" stroke="none" 
	d="
M109.051102,76.087753 
	C109.005302,75.652458 109.001511,75.824165 109.015778,75.865059 
	C109.182259,74.693993 109.334473,73.482040 109.486687,72.270081 
	C109.990417,72.172089 110.494148,72.074097 110.997879,71.976105 
	C111.729485,74.305878 112.605743,76.602577 113.148468,78.975555 
	C113.610954,80.997688 113.689735,83.107590 113.966904,85.554504 
	C113.995537,85.930351 114.022118,85.869118 114.022118,85.869118 
	C111.947212,84.160751 109.627121,82.655296 107.944519,80.622246 
	C107.429520,79.999992 108.663734,77.930031 109.051102,76.087753 
z"/>
<path fill="#D1CF27" opacity="1.000000" stroke="none" 
	d="
M123.127151,102.555374 
	C128.069778,102.361664 133.246170,100.794884 135.390182,108.233078 
	C130.721146,106.798080 126.623566,105.550522 122.554382,104.216347 
	C122.457878,104.184708 122.679581,103.182602 123.127151,102.555374 
z"/>
<path fill="#D6D526" opacity="1.000000" stroke="none" 
	d="
M183.389160,99.868889 
	C182.873825,100.012703 182.661835,99.996704 182.131866,99.956726 
	C182.597977,96.095985 183.382095,92.259232 184.166199,88.422470 
	C184.751770,88.480011 185.337341,88.537544 185.922913,88.595078 
	C186.347580,90.385399 186.772263,92.175713 187.728394,94.154358 
	C188.259827,94.342690 188.579468,94.640831 188.579468,94.640839 
	C186.950485,96.330246 185.321487,98.019661 183.389160,99.868889 
z"/>
<path fill="#D1CE28" opacity="1.000000" stroke="none" 
	d="
M188.927750,92.935699 
	C190.858444,84.388260 197.103546,90.356743 201.181488,89.033730 
	C201.325211,89.579597 201.468933,90.125458 201.612656,90.671326 
	C197.831436,91.515694 194.050217,92.360069 189.762161,93.237930 
	C189.255325,93.271431 188.927750,92.935699 188.927750,92.935699 
z"/>
<path fill="#D7D626" opacity="1.000000" stroke="none" 
	d="
M121.896194,93.957565 
	C122.239334,92.211143 122.582466,90.464714 122.925606,88.718285 
	C123.470345,88.623413 124.015083,88.528542 124.559822,88.433670 
	C125.627243,92.344765 126.694664,96.255859 128.125931,101.500099 
	C125.173691,99.615288 123.710732,98.681282 122.206085,97.170486 
	C122.075005,95.714989 121.985603,94.836281 121.896194,93.957565 
z"/>
<path fill="#CFCB28" opacity="1.000000" stroke="none" 
	d="
M118.994652,93.071854 
	C115.163475,92.340691 111.332291,91.609520 106.921341,90.767708 
	C109.464653,87.349609 113.993958,91.605415 114.271027,86.273224 
	C114.022118,85.869118 113.995537,85.930351 113.966980,85.942459 
	C115.620796,87.629898 117.303162,89.305222 119.018547,91.667633 
	C119.032593,92.593765 119.013626,92.832809 118.994652,93.071854 
z"/>
<path fill="#ECE4E9" opacity="1.000000" stroke="none" 
	d="
M160.300507,29.023170 
	C163.085464,27.172293 164.824905,28.002609 165.038879,30.806459 
	C165.112381,31.769686 163.443665,33.757065 162.612442,33.734650 
	C159.881454,33.660995 158.987900,31.875402 160.300507,29.023170 
z"/>
<path fill="#572868" opacity="1.000000" stroke="none" 
	d="
M95.035477,52.855419 
	C95.723358,52.522640 96.512245,52.424324 97.685760,52.437813 
	C97.092422,52.729706 96.114456,52.909790 95.035477,52.855419 
z"/>
<path fill="#D1CE28" opacity="1.000000" stroke="none" 
	d="
M121.677399,93.976761 
	C121.985603,94.836281 122.075005,95.714989 122.045731,96.866776 
	C121.513100,96.495979 121.099152,95.852104 120.702675,94.765816 
	C120.720154,94.323402 121.019753,93.976967 121.019753,93.976967 
	C121.019753,93.976967 121.458611,93.995956 121.677399,93.976761 
z"/>
<path fill="#D1CE28" opacity="1.000000" stroke="none" 
	d="
M119.062515,93.232338 
	C119.013626,92.832809 119.032593,92.593765 119.090958,91.996780 
	C119.403000,91.887611 119.675659,92.136368 119.843231,92.821854 
	C119.738144,93.258583 119.415047,93.593811 119.415047,93.593811 
	C119.415047,93.593811 119.130386,93.392815 119.062515,93.232338 
z"/>
<path fill="#D1CE28" opacity="1.000000" stroke="none" 
	d="
M119.905090,93.096352 
	C120.345085,93.117126 120.618126,93.300133 120.955460,93.730049 
	C121.019753,93.976967 120.720154,94.323402 120.556717,94.485313 
	C120.128006,94.461388 119.896164,94.240463 119.556396,93.789139 
	C119.415047,93.593811 119.738144,93.258583 119.905090,93.096352 
z"/>
<path fill="#D1CE28" opacity="1.000000" stroke="none" 
	d="
M188.127808,94.168526 
	C188.145248,93.698196 188.294708,93.402031 188.685959,93.020782 
	C188.927750,92.935699 189.255325,93.271431 189.412415,93.445877 
	C189.388718,93.885429 189.185532,94.132095 188.769714,94.500580 
	C188.579468,94.640831 188.259827,94.342690 188.127808,94.168526 
z"/>
<path fill="#502065" opacity="1.000000" stroke="none" 
	d="
M176.767670,44.712849 
	C179.820358,40.875771 183.719620,39.649303 187.645309,41.343643 
	C190.108398,42.406715 191.816116,45.219898 193.862732,47.247871 
	C193.525406,47.648540 193.188080,48.049213 192.850754,48.449883 
	C187.150406,48.449883 181.450073,48.449883 175.196396,48.449883 
	C175.754089,47.047485 176.156784,46.034893 176.767670,44.712849 
z"/>
<path fill="#522266" opacity="1.000000" stroke="none" 
	d="
M91.906143,41.269508 
	C99.849297,40.390472 102.395035,41.857288 104.378548,48.369560 
	C98.477715,48.369560 92.681679,48.369560 85.170624,48.369560 
	C87.831505,45.483265 89.689224,43.468178 91.906143,41.269508 
z"/>
</svg>